<svg xmlns="http://www.w3.org/2000/svg" viewBox="0 0 1456 816" width="1456" height="816" role="img">
  <defs>
    <linearGradient id="bg" x1="0" y1="0" x2="1" y2="1">
      <stop offset="0" stop-color="#1a2c48"/>
      <stop offset="0.55" stop-color="#0a1422"/>
      <stop offset="1" stop-color="#060d17"/>
    </linearGradient>
    <radialGradient id="glow" cx="0.72" cy="0.28" r="0.6">
      <stop offset="0" stop-color="#e1c068" stop-opacity="0.20"/>
      <stop offset="1" stop-color="#e1c068" stop-opacity="0"/>
    </radialGradient>
    <linearGradient id="goldgrad" x1="0" y1="0" x2="1" y2="1">
      <stop offset="0" stop-color="#e1c068"/>
      <stop offset="1" stop-color="#c1922a"/>
    </linearGradient>
    <pattern id="dots" width="26" height="26" patternUnits="userSpaceOnUse">
      <circle cx="2" cy="2" r="1.4" fill="#ffffff" fill-opacity="0.05"/>
    </pattern>
  </defs>
  <rect width="1456" height="816" fill="url(#bg)"/>
  <rect width="1456" height="816" fill="url(#dots)"/>
  <rect width="1456" height="816" fill="url(#glow)"/>
  <g stroke="#ffffff" stroke-opacity="0.06" fill="none">
    <circle cx="728" cy="408" r="300"/>
    <circle cx="728" cy="408" r="220"/>
  </g>
  <g fill="none" stroke="url(#goldgrad)" stroke-width="6" stroke-linecap="round" stroke-linejoin="round" transform="translate(728 408)"><line x1="0" y1="0" x2="-180" y2="-90"/><line x1="0" y1="0" x2="180" y2="-90"/><line x1="0" y1="0" x2="-200" y2="80"/><line x1="0" y1="0" x2="200" y2="80"/><line x1="0" y1="0" x2="-60" y2="130"/><line x1="0" y1="0" x2="70" y2="-150"/><circle cx="0" cy="0" r="18" fill="url(#goldgrad)" stroke="none"/><circle cx="-180" cy="-90" r="12" fill="url(#goldgrad)" stroke="none"/><circle cx="180" cy="-90" r="12" fill="url(#goldgrad)" stroke="none"/><circle cx="-200" cy="80" r="12" fill="url(#goldgrad)" stroke="none"/><circle cx="200" cy="80" r="12" fill="url(#goldgrad)" stroke="none"/><circle cx="-60" cy="130" r="12" fill="url(#goldgrad)" stroke="none"/><circle cx="70" cy="-150" r="12" fill="url(#goldgrad)" stroke="none"/></g>
  <g opacity="0.9" transform="translate(64 752)">
    <rect x="-2" y="-26" width="34" height="34" rx="8" fill="url(#goldgrad)"/>
    <path d="M6 0 V-18 a8 8 0 0 1 8 -8 h4 a7 7 0 0 1 0 14 h-6" fill="none" stroke="#0a1422" stroke-width="3" stroke-linecap="round" stroke-linejoin="round"/>
    <text x="46" y="-2" font-family="Georgia, serif" font-size="20" fill="#fbfaf6" font-weight="700">Pouch Care</text>
  </g>
</svg>